# xmcd CD database file
#
# Track frame offsets:
#	150
#	17217
#	35675
#	56356
#	71283
#	86171
#	107755
#	125609
#	151717
#	174740
#
# Disc length: 2534 seconds
#
# Revision: 6
# Processed by: cddbd v1.5.2PL0 Copyright (c) Steve Scherf et al.
# Submitted via: CDex 1.70beta2
#
DISCID=7e09e40a
DTITLE=KARA - FANTASTIC GIRLS
DYEAR=2013
DGENRE=JPop
TTITLE0=サンキューサマーラブ
TTITLE1=バーン! バーン! ハートビート
TTITLE2=バイバイハッピーデイズ
TTITLE3=レスキューミー
TTITLE4=POP STAR
TTITLE5=プロミス
TTITLE6=エンドレスナイト
TTITLE7=一番にわたしを抱きしめて
TTITLE8=HANABI
TTITLE9=マイボーイ
EXTD=YEAR: 2013
EXTT0=
EXTT1=
EXTT2=
EXTT3=
EXTT4=
EXTT5=
EXTT6=
EXTT7=
EXTT8=
EXTT9=
PLAYORDER=
